<?xml version="1.0" encoding="UTF-8" ?>
<!DOCTYPE svg PUBLIC "-//W3C//DTD SVG 1.1//EN" "http://www.w3.org/Graphics/SVG/1.1/DTD/svg11.dtd">
<svg width="24pt" height="24pt" viewBox="0 0 24 24" version="1.1" xmlns="http://www.w3.org/2000/svg">
<g id="#32cbccff">
<path fill="#32cbcc" opacity="1.00" d=" M 1.04 4.30 C 4.70 2.90 8.35 1.44 12.00 0.01 C 15.66 1.44 19.30 2.90 22.97 4.31 C 22.93 8.64 23.65 13.38 21.23 17.25 C 19.34 20.62 15.98 22.90 12.33 24.00 L 11.82 24.00 C 8.04 22.98 4.60 20.58 2.68 17.11 C 0.35 13.26 1.08 8.58 1.04 4.30 M 3.78 5.32 C 3.77 7.54 3.76 9.76 3.77 11.98 C 6.50 11.79 9.47 12.65 12.00 11.32 C 12.00 8.44 12.00 5.55 11.99 2.67 C 9.26 3.55 6.52 4.44 3.78 5.32 M 12.26 12.26 C 11.42 15.17 12.30 18.40 12.02 21.42 C 16.52 20.62 19.92 16.46 20.43 12.02 C 17.74 12.29 14.83 11.40 12.26 12.26 Z" />
</g>
</svg>
