<?xml version="1.0" encoding="UTF-8" ?>
<!DOCTYPE svg PUBLIC "-//W3C//DTD SVG 1.1//EN" "http://www.w3.org/Graphics/SVG/1.1/DTD/svg11.dtd">
<svg width="24pt" height="24pt" viewBox="0 0 24 24" version="1.1" xmlns="http://www.w3.org/2000/svg">
<g id="#bdbdbdda">
<path fill="#bdbdbd" opacity="0.85" d=" M 10.03 0.00 L 12.85 0.00 C 14.73 0.24 16.52 0.86 18.33 1.38 C 18.01 1.83 17.36 2.73 17.04 3.18 C 12.66 1.23 7.08 1.92 4.14 5.98 C 0.31 10.51 2.04 18.10 7.30 20.72 C 11.65 23.36 17.71 21.60 20.34 17.36 C 22.02 14.97 21.94 11.96 22.07 9.18 C 22.55 8.94 23.52 8.47 24.00 8.23 L 24.00 13.99 C 23.01 18.99 18.98 23.04 13.96 24.00 L 10.03 24.00 C 5.03 23.01 0.97 18.98 0.00 13.98 L 0.00 10.02 C 0.98 5.02 5.04 0.98 10.03 0.00 Z" />
<path fill="#bdbdbd" opacity="0.85" d=" M 10.73 13.20 C 14.21 10.02 16.92 5.69 21.25 3.66 C 21.59 5.83 19.75 7.06 18.45 8.42 C 15.83 10.97 13.27 13.59 10.67 16.16 C 8.94 14.70 6.54 13.30 6.71 10.69 C 8.30 11.08 9.55 12.13 10.73 13.20 Z" />
</g>
</svg>
